<svg width="48" height="48" viewBox="0 0 48 48" fill="none" xmlns="http://www.w3.org/2000/svg">
<g transform="translate(24 24) scale(0.9302) translate(-24 -24)">
<path d="M28.5 18C28.5 15.5147 26.4853 13.5 24 13.5C21.5147 13.5 19.5 15.5147 19.5 18C19.5 20.4853 21.5147 22.5 24 22.5C26.4853 22.5 28.5 20.4853 28.5 18ZM31.5 18C31.5 22.1421 28.1421 25.5 24 25.5C19.8579 25.5 16.5 22.1421 16.5 18C16.5 13.8579 19.8579 10.5 24 10.5C28.1421 10.5 31.5 13.8579 31.5 18Z" fill="#929292"/>
<path d="M42.5 24C42.5 13.7827 34.2173 5.5 24 5.5C13.7827 5.5 5.5 13.7827 5.5 24C5.5 34.2173 13.7827 42.5 24 42.5C34.2173 42.5 42.5 34.2173 42.5 24ZM45.5 24C45.5 35.8741 35.8741 45.5 24 45.5C12.1259 45.5 2.5 35.8741 2.5 24C2.5 12.1259 12.1259 2.5 24 2.5C35.8741 2.5 45.5 12.1259 45.5 24Z" fill="#929292"/>
<path d="M23.9994 28.5C29.0909 28.5 32.496 29.5838 34.6244 31.791C36.4702 33.7058 37.1136 36.2258 37.3548 38.8086L37.4369 39.918V40.0703C37.4021 40.8301 36.7966 41.4553 36.0208 41.498C35.1938 41.5435 34.4863 40.9091 34.4408 40.082C34.2854 37.2596 33.7809 35.2388 32.4642 33.873C31.1653 32.526 28.7573 31.5 23.9994 31.5C19.242 31.5001 16.8353 32.5261 15.5365 33.873C14.2197 35.2388 13.7153 37.2595 13.5599 40.082C13.5144 40.9091 12.8068 41.5433 11.9798 41.498C11.1528 41.4525 10.5185 40.745 10.5638 39.918C10.7267 36.9583 11.2668 33.9793 13.3763 31.791C15.5045 29.584 18.9083 28.5001 23.9994 28.5Z" fill="#929292"/>
</g>
</svg>
